<?xml version="1.0" encoding="utf-8"?>
<!-- Generator: Adobe Illustrator 24.2.1, SVG Export Plug-In . SVG Version: 6.00 Build 0)  -->
<svg version="1.0" id="Layer_1" xmlns="http://www.w3.org/2000/svg" xmlns:xlink="http://www.w3.org/1999/xlink" x="0px" y="0px"
	 viewBox="0 0 63.66 45" style="enable-background:new 0 0 63.66 45;" xml:space="preserve">
<style type="text/css">
	.st0{fill:url(#SVGID_1_);}
	.st1{fill:#515251;}
</style>
<linearGradient id="SVGID_1_" gradientUnits="userSpaceOnUse" x1="-110.057" y1="-63.7737" x2="-49.4842" y2="-63.7737">
	<stop  offset="0" style="stop-color:#D5C898"/>
	<stop  offset="1.605918e-03" style="stop-color:#D3C695"/>
	<stop  offset="0.0189" style="stop-color:#CAB47B"/>
	<stop  offset="0.0366" style="stop-color:#C3A768"/>
	<stop  offset="0.0548" style="stop-color:#BE9F5C"/>
	<stop  offset="0.0742" style="stop-color:#BD9C59"/>
	<stop  offset="0.3836" style="stop-color:#C9A66C"/>
	<stop  offset="0.6341" style="stop-color:#F5C267"/>
	<stop  offset="0.8547" style="stop-color:#E4CFA5"/>
	<stop  offset="1" style="stop-color:#F9EDBB"/>
</linearGradient>
<path class="st0" d="M-68.89-80.57v11.97c3.62,0,9.45,0.7,9.45-7.64s-7.14-7.84-7.14-7.84v-1.94c0,0,13.01-0.41,13.01,9.05
	c0,7.14-5.16,9.39-5.16,9.39s9.25,1.91,9.25,11.36c0,13.68-11.57,14.71-11.57,14.71v-2.4c0,0,5.53-2.95,5.53-11.2
	c0-10.66-13.53-9.5-13.53-9.5v15.29l-6.29-6.29v-22.12L-68.89-80.57z M-110.06-84.17c5.35,0.4,5.8,0.86,5.8,6.82v25.84
	c0,5.76-0.52,6.23-5.8,6.69v1.86h17.21v-1.86c-5.35-0.46-5.93-0.93-5.93-6.69V-64.1c1.03-0.07,2.13,0.07,3.61,1.92
	c5.87,7.02,9.68,14.04,17,18.49c7.25,4.42,11.99,0.71,11.99,0.71c-4-0.46-7.46-2.84-10.74-6.49c-3.35-3.64-10.39-12.15-15.41-18.09
	c4.13-4.17,9.15-9.21,11.09-11.13c4.32-4.57,7.47-5.41,10.82-5.41l0.01-1.94h-17.89v1.86l4.21,0.02
	c-0.58,5.3-12.33,12.41-14.68,16.11v-9.3c0-5.9,0.9-6.36,5.93-6.82v-1.86h-17.21V-84.17z"/>
<path class="st1" d="M42.59,5.95v11.84c3.58,0,9.35,0.7,9.35-7.56s-7.06-7.76-7.06-7.76V0.54c0,0,12.87-0.4,12.87,8.95
	c0,7.06-5.11,9.29-5.11,9.29s9.15,1.89,9.15,11.24c0,13.53-11.44,14.55-11.44,14.55v-2.38c0,0,5.47-2.92,5.47-11.08
	c0-10.55-13.38-9.4-13.38-9.4v15.12l-6.22-6.22V8.74L42.59,5.95z M1.86,2.38C7.16,2.77,7.6,3.23,7.6,9.13V34.7
	c0,5.7-0.51,6.16-5.74,6.62v1.84h17.03v-1.84c-5.29-0.46-5.87-0.92-5.87-6.62V22.25c1.02-0.07,2.1,0.07,3.57,1.9
	c5.8,6.95,9.58,13.89,16.82,18.3c7.18,4.37,11.86,0.71,11.86,0.71c-3.95-0.46-7.38-2.81-10.63-6.42
	c-3.32-3.61-10.28-12.02-15.24-17.9c4.08-4.13,9.06-9.11,10.97-11.01c4.27-4.52,7.39-5.35,10.7-5.35l0.01-1.92h-17.7v1.84l4.17,0.02
	c-0.58,5.24-12.2,12.28-14.53,15.94V9.13c0-5.83,0.89-6.29,5.87-6.75V0.54H1.86V2.38z"/>
</svg>
